<svg xmlns="http://www.w3.org/2000/svg" viewBox="0 0 32 32" width="64" height="64">
  <!-- Tomato pixel art -->
  <rect x="14" y="2" width="4" height="2" fill="#4a7c59"/>
  <rect x="12" y="4" width="2" height="2" fill="#4a7c59"/>
  <rect x="14" y="4" width="4" height="2" fill="#6b9b4a"/>
  <rect x="18" y="4" width="2" height="2" fill="#4a7c59"/>
  <rect x="10" y="6" width="12" height="2" fill="#e53935"/>
  <rect x="8" y="8" width="16" height="2" fill="#e53935"/>
  <rect x="6" y="10" width="20" height="2" fill="#e53935"/>
  <rect x="6" y="12" width="20" height="2" fill="#c62828"/>
  <rect x="6" y="14" width="20" height="2" fill="#c62828"/>
  <rect x="6" y="16" width="20" height="2" fill="#c62828"/>
  <rect x="8" y="18" width="16" height="2" fill="#b71c1c"/>
  <rect x="10" y="20" width="12" height="2" fill="#b71c1c"/>
  <rect x="12" y="22" width="8" height="2" fill="#b71c1c"/>
  <!-- Highlight -->
  <rect x="10" y="10" width="2" height="2" fill="#ef5350"/>
  <rect x="12" y="8" width="2" height="2" fill="#ef5350"/>
</svg>
