<svg xmlns="http://www.w3.org/2000/svg" viewBox="0 0 48 48" width="96" height="96">
  <!-- Balcony with plants pixel art -->
  <!-- Railing -->
  <rect x="4" y="24" width="40" height="2" fill="#8d6e63"/>
  <rect x="4" y="24" width="2" height="20" fill="#6d4c41"/>
  <rect x="42" y="24" width="2" height="20" fill="#6d4c41"/>
  <rect x="14" y="24" width="2" height="20" fill="#8d6e63"/>
  <rect x="32" y="24" width="2" height="20" fill="#8d6e63"/>
  <rect x="4" y="42" width="40" height="2" fill="#5d4037"/>
  <!-- Pot 1 -->
  <rect x="6" y="18" width="8" height="2" fill="#a1887f"/>
  <rect x="6" y="20" width="8" height="4" fill="#8d6e63"/>
  <!-- Plant 1 -->
  <rect x="8" y="12" width="4" height="2" fill="#66bb6a"/>
  <rect x="6" y="14" width="2" height="2" fill="#4caf50"/>
  <rect x="8" y="14" width="4" height="4" fill="#81c784"/>
  <rect x="12" y="14" width="2" height="2" fill="#4caf50"/>
  <!-- Pot 2 -->
  <rect x="20" y="16" width="8" height="2" fill="#a1887f"/>
  <rect x="20" y="18" width="8" height="6" fill="#8d6e63"/>
  <!-- Tomato plant -->
  <rect x="22" y="6" width="4" height="2" fill="#4caf50"/>
  <rect x="20" y="8" width="2" height="2" fill="#66bb6a"/>
  <rect x="22" y="8" width="4" height="2" fill="#81c784"/>
  <rect x="26" y="8" width="2" height="2" fill="#66bb6a"/>
  <rect x="22" y="10" width="4" height="6" fill="#4caf50"/>
  <rect x="24" y="8" width="2" height="2" fill="#e53935"/>
  <rect x="20" y="12" width="2" height="2" fill="#c62828"/>
  <!-- Pot 3 -->
  <rect x="34" y="18" width="8" height="2" fill="#a1887f"/>
  <rect x="34" y="20" width="8" height="4" fill="#8d6e63"/>
  <!-- Herb -->
  <rect x="36" y="12" width="4" height="2" fill="#81c784"/>
  <rect x="34" y="14" width="2" height="2" fill="#66bb6a"/>
  <rect x="36" y="14" width="4" height="4" fill="#4caf50"/>
  <rect x="40" y="14" width="2" height="2" fill="#66bb6a"/>
</svg>
