<svg xmlns="http://www.w3.org/2000/svg" viewBox="0 0 32 32" width="64" height="64">
  <!-- Strawberry pixel art -->
  <rect x="14" y="2" width="4" height="2" fill="#4caf50"/>
  <rect x="12" y="4" width="2" height="2" fill="#66bb6a"/>
  <rect x="14" y="4" width="4" height="2" fill="#81c784"/>
  <rect x="18" y="4" width="2" height="2" fill="#66bb6a"/>
  <rect x="10" y="6" width="12" height="2" fill="#e53935"/>
  <rect x="8" y="8" width="16" height="2" fill="#e53935"/>
  <rect x="8" y="10" width="16" height="2" fill="#c62828"/>
  <rect x="8" y="12" width="16" height="2" fill="#c62828"/>
  <rect x="10" y="14" width="12" height="2" fill="#b71c1c"/>
  <rect x="10" y="16" width="12" height="2" fill="#b71c1c"/>
  <rect x="12" y="18" width="8" height="2" fill="#9a0007"/>
  <rect x="14" y="20" width="4" height="2" fill="#9a0007"/>
  <!-- Seeds -->
  <rect x="10" y="8" width="2" height="2" fill="#ffeb3b"/>
  <rect x="16" y="10" width="2" height="2" fill="#ffeb3b"/>
  <rect x="12" y="12" width="2" height="2" fill="#ffeb3b"/>
  <rect x="18" y="14" width="2" height="2" fill="#ffeb3b"/>
  <rect x="14" y="16" width="2" height="2" fill="#ffeb3b"/>
</svg>
