<svg xmlns="http://www.w3.org/2000/svg" viewBox="0 0 32 32" width="64" height="64">
  <!-- Carrot pixel art -->
  <rect x="12" y="2" width="2" height="2" fill="#66bb6a"/>
  <rect x="16" y="2" width="2" height="2" fill="#66bb6a"/>
  <rect x="14" y="2" width="2" height="2" fill="#81c784"/>
  <rect x="10" y="4" width="2" height="2" fill="#4caf50"/>
  <rect x="12" y="4" width="6" height="2" fill="#66bb6a"/>
  <rect x="18" y="4" width="2" height="2" fill="#4caf50"/>
  <rect x="12" y="6" width="6" height="2" fill="#ff9800"/>
  <rect x="10" y="8" width="10" height="2" fill="#ff9800"/>
  <rect x="10" y="10" width="10" height="2" fill="#f57c00"/>
  <rect x="12" y="12" width="6" height="2" fill="#f57c00"/>
  <rect x="12" y="14" width="6" height="2" fill="#ef6c00"/>
  <rect x="14" y="16" width="4" height="2" fill="#ef6c00"/>
  <rect x="14" y="18" width="4" height="2" fill="#e65100"/>
  <rect x="14" y="20" width="2" height="2" fill="#e65100"/>
  <rect x="14" y="22" width="2" height="2" fill="#bf360c"/>
</svg>
